<?xml version="1.0" standalone="no"?>
<!DOCTYPE svg PUBLIC "-//W3C//DTD SVG 20010904//EN"
 "http://www.w3.org/TR/2001/REC-SVG-20010904/DTD/svg10.dtd">
<svg version="1.0" xmlns="http://www.w3.org/2000/svg"
 width="149.000000pt" height="149.000000pt" viewBox="0 0 149.000000 149.000000"
 preserveAspectRatio="xMidYMid meet">
<metadata>
Created by potrace 1.11, written by Peter Selinger 2001-2013
</metadata>
<g transform="translate(0.000000,149.000000) scale(0.100000,-0.100000)"
fill="#000000" stroke="none">
<path d="M946 1394 c-3 -8 -3 -28 0 -42 5 -25 4 -26 -9 -9 -15 18 -15 18 -20
0 -3 -14 -8 -10 -20 17 -10 21 -16 28 -17 17 0 -11 -5 -15 -11 -11 -7 4 -9 0
-6 -12 4 -11 9 -32 13 -49 13 -56 45 -110 91 -151 l45 -40 -50 -33 c-75 -48
-106 -54 -153 -31 -60 31 -105 26 -182 -20 -75 -45 -108 -49 -239 -26 -146 26
-254 -17 -287 -113 -14 -44 -14 -66 2 -83 15 -16 37 -119 37 -176 0 -26 -10
-63 -25 -93 -23 -45 -26 -65 -31 -200 -3 -83 -9 -161 -14 -174 -6 -17 -5 -25
4 -28 7 -3 16 -19 19 -36 6 -28 10 -31 47 -31 46 0 51 11 15 34 -24 15 -25 22
-25 104 0 125 45 267 99 317 20 17 20 16 10 -18 -7 -27 -5 -60 11 -136 11 -55
23 -134 27 -175 3 -42 10 -76 15 -76 5 0 13 -11 18 -25 8 -21 16 -25 49 -25
52 0 57 10 17 42 -79 64 -79 322 0 481 14 26 27 47 30 47 3 0 29 -6 57 -14 29
-8 86 -17 129 -21 111 -10 109 -4 109 -226 0 -101 -2 -196 -6 -210 -4 -17 1
-37 15 -62 19 -33 27 -37 62 -37 l39 0 -30 37 c-30 37 -31 40 -31 140 0 93 15
183 31 183 9 0 21 -240 13 -277 -4 -22 -3 -33 5 -33 6 0 17 -11 23 -25 9 -20
18 -25 50 -25 21 0 38 3 38 7 0 4 -14 21 -30 38 -28 29 -31 38 -37 128 -3 58
-2 119 5 150 6 29 15 84 20 123 5 39 16 83 23 96 8 14 33 61 56 106 37 70 49
84 99 114 53 33 58 34 92 22 31 -10 43 -9 75 3 37 15 40 15 69 -7 25 -19 35
-21 49 -11 10 6 25 11 34 11 21 0 37 37 30 69 -7 35 -34 60 -102 96 -29 15
-60 36 -69 46 -15 16 -13 18 33 25 79 11 134 49 169 116 12 23 11 27 -2 32 -9
3 -12 2 -9 -5 7 -10 -21 -49 -36 -49 -4 0 -5 10 -3 23 3 18 2 17 -9 -6 -20
-42 -27 -22 -22 62 l5 76 -15 -53 c-17 -59 -37 -102 -41 -87 -1 6 -5 27 -9 48
-7 44 -24 51 -17 7 5 -35 -16 -92 -32 -87 -7 2 -9 17 -6 38 8 58 6 148 -5 158
-7 7 -10 -9 -10 -49 0 -48 -4 -63 -24 -84 -24 -26 -51 -35 -51 -17 0 5 5 22
10 36 13 34 1 54 -14 24 -6 -12 -17 -25 -25 -27 -11 -4 -13 4 -8 37 6 49 -9
46 -19 -4 -15 -82 -57 -56 -76 46 -11 59 -13 61 -18 30 -5 -31 -6 -33 -19 -17
-8 9 -14 30 -14 47 0 33 -2 36 -11 13z"/>
</g>
</svg>
